<?xml version="1.0" encoding="utf-8"?>
<!-- Generator: Adobe Illustrator 21.1.0, SVG Export Plug-In . SVG Version: 6.00 Build 0)  -->
<svg version="1.1" id="Layer_1" xmlns="http://www.w3.org/2000/svg" xmlns:xlink="http://www.w3.org/1999/xlink" x="0px" y="0px"
	 viewBox="0 0 34 34" style="enable-background:new 0 0 34 34;" xml:space="preserve">
<style type="text/css">
	.st0{fill:#010101;}
	.st1{fill:#020202;}
	.st2{fill:none;stroke:#020202;stroke-width:2;stroke-miterlimit:10;}
	.st3{fill:none;stroke:#020202;stroke-width:2;stroke-linecap:round;stroke-miterlimit:10;}
	.st4{fill:#231F20;}
</style>
<g>
	<path class="st0" d="M7.9,33.8H0.2V26L20.6,5.6l7.8,7.8L7.9,33.8z M1.7,32.2h5.6l18.9-18.9l-5.6-5.6L1.7,26.7V32.2z M29.2,12.5
		l-7.8-7.8l3.9-3.9c0.9-0.9,2.6-0.9,3.6,0l4.2,4.2c0.5,0.5,0.8,1.1,0.8,1.9c0,0.6-0.3,1.4-0.8,1.9L29.2,12.5z M23.6,4.8l5.6,5.6
		l2.6-2.6C32,7.6,32.1,7.3,32.1,7c0-0.3-0.2-0.5-0.3-0.8l-4-4.2c-0.5-0.5-1.1-0.5-1.4,0L23.6,4.8z"/>
</g>
</svg>
